<svg xmlns="http://www.w3.org/2000/svg" xmlns:xlink="http://www.w3.org/1999/xlink" width="500" zoomAndPan="magnify" viewBox="0 0 375 374.999991" height="500" preserveAspectRatio="xMidYMid meet" version="1.0"><defs><g/><clipPath id="id1"><path d="M 48 94 L 124 94 L 124 182 L 48 182 Z M 48 94 " clip-rule="nonzero"/></clipPath><clipPath id="id2"><path d="M 30.90625 153.046875 L 78.984375 76.964844 L 123.367188 105.007812 L 75.289062 181.089844 Z M 30.90625 153.046875 " clip-rule="nonzero"/></clipPath><clipPath id="id3"><path d="M 30.90625 153.046875 L 78.984375 76.964844 L 155.066406 125.042969 L 106.988281 201.125 Z M 30.90625 153.046875 " clip-rule="nonzero"/></clipPath><clipPath id="id4"><path d="M 113 41 L 194 41 L 194 109 L 113 109 Z M 113 41 " clip-rule="nonzero"/></clipPath><clipPath id="id5"><path d="M 98.417969 66.398438 L 171.089844 27.347656 L 193.8125 69.628906 L 121.140625 108.679688 Z M 98.417969 66.398438 " clip-rule="nonzero"/></clipPath><clipPath id="id6"><path d="M 98.417969 66.398438 L 171.089844 27.347656 L 210.144531 100.015625 L 137.472656 139.070312 Z M 98.417969 66.398438 " clip-rule="nonzero"/></clipPath><clipPath id="id7"><path d="M 188 40 L 272 40 L 272 103 L 188 103 Z M 188 40 " clip-rule="nonzero"/></clipPath><clipPath id="id8"><path d="M 204.257812 29.835938 L 282.414062 56.253906 L 266.800781 102.4375 L 188.648438 76.019531 Z M 204.257812 29.835938 " clip-rule="nonzero"/></clipPath><clipPath id="id9"><path d="M 204.257812 29.835938 L 282.414062 56.253906 L 255.996094 134.410156 L 177.839844 107.992188 Z M 204.257812 29.835938 " clip-rule="nonzero"/></clipPath><clipPath id="id10"><path d="M 264 91 L 332 91 L 332 170 L 264 170 Z M 264 91 " clip-rule="nonzero"/></clipPath><clipPath id="id11"><path d="M 305.753906 76.464844 L 346.132812 145.816406 L 305.296875 169.589844 L 264.921875 100.238281 Z M 305.753906 76.464844 " clip-rule="nonzero"/></clipPath><clipPath id="id12"><path d="M 305.753906 76.464844 L 346.132812 145.816406 L 276.78125 186.191406 L 236.402344 116.839844 Z M 305.753906 76.464844 " clip-rule="nonzero"/></clipPath><clipPath id="id13"><path d="M 141.390625 280.898438 L 212.203125 280.898438 L 212.203125 305.648438 L 141.390625 305.648438 Z M 141.390625 280.898438 " clip-rule="nonzero"/></clipPath><clipPath id="id14"><path d="M 305.65625 165.417969 L 352.90625 165.417969 L 352.90625 245.667969 L 305.65625 245.667969 Z M 305.65625 165.417969 " clip-rule="nonzero"/></clipPath></defs><g fill="rgb(20.388794%, 71.759033%, 94.509888%)" fill-opacity="1"><g transform="translate(246.365818, 301.042209)"><g><path d="M 20.84375 0 C 25.726562 0 29.796875 -3.90625 29.796875 -8.792969 L 29.796875 -95.582031 C 29.796875 -100.46875 25.726562 -104.210938 20.84375 -104.210938 C 15.957031 -104.210938 12.050781 -100.46875 12.050781 -95.582031 L 12.050781 -8.792969 C 12.050781 -3.90625 15.957031 0 20.84375 0 Z M 20.84375 0 "/></g></g></g><g fill="rgb(20.388794%, 71.759033%, 94.509888%)" fill-opacity="1"><g transform="translate(176.740848, 234.931243)"><g><path d="M 36.859375 0.773438 C 54.132812 0.773438 68.507812 -13.414062 68.507812 -30.878906 C 68.507812 -48.246094 54.132812 -62.429688 36.859375 -62.429688 C 19.394531 -62.429688 5.308594 -48.246094 5.308594 -30.878906 C 5.308594 -13.414062 19.394531 0.773438 36.859375 0.773438 Z M 36.859375 -3.28125 C 21.515625 -3.28125 9.457031 -15.4375 9.457031 -30.878906 C 9.457031 -46.316406 21.515625 -58.472656 36.859375 -58.472656 C 52.105469 -58.472656 64.359375 -46.316406 64.359375 -30.878906 C 64.359375 -15.4375 52.105469 -3.28125 36.859375 -3.28125 Z M 36.859375 -3.28125 "/></g></g></g><g fill="rgb(20.388794%, 71.759033%, 94.509888%)" fill-opacity="1"><g transform="translate(104.439468, 235.681243)"><g><path d="M 36.859375 0.773438 C 54.132812 0.773438 68.507812 -13.414062 68.507812 -30.878906 C 68.507812 -48.246094 54.132812 -62.429688 36.859375 -62.429688 C 19.394531 -62.429688 5.308594 -48.246094 5.308594 -30.878906 C 5.308594 -13.414062 19.394531 0.773438 36.859375 0.773438 Z M 36.859375 -3.28125 C 21.515625 -3.28125 9.457031 -15.4375 9.457031 -30.878906 C 9.457031 -46.316406 21.515625 -58.472656 36.859375 -58.472656 C 52.105469 -58.472656 64.359375 -46.316406 64.359375 -30.878906 C 64.359375 -15.4375 52.105469 -3.28125 36.859375 -3.28125 Z M 36.859375 -3.28125 "/></g></g></g><g fill="rgb(20.388794%, 71.759033%, 94.509888%)" fill-opacity="1"><g transform="translate(43.990614, 351.055608)"><g><path d="M 142.035156 3 C 173.515625 3 203.121094 -7.871094 227.480469 -31.855469 C 230.851562 -34.851562 231.601562 -39.351562 228.976562 -43.097656 C 226.355469 -46.09375 221.109375 -46.09375 217.359375 -43.097656 C 196.375 -22.484375 170.140625 -12.742188 142.035156 -12.742188 C 81.699219 -12.742188 36.726562 -62.210938 36.726562 -119.546875 C 36.726562 -179.882812 83.570312 -227.105469 142.410156 -227.105469 C 170.140625 -227.105469 196.75 -215.863281 217.734375 -195.25 C 221.484375 -192.625 226.355469 -192.25 229.351562 -196 C 231.601562 -198.996094 231.226562 -203.871094 227.480469 -206.867188 C 203.496094 -230.476562 173.886719 -242.46875 141.660156 -242.46875 C 71.578125 -242.46875 20.613281 -184.007812 20.613281 -119.546875 C 20.613281 -52.464844 74.578125 3 142.035156 3 Z M 142.035156 3 "/></g></g></g><g clip-path="url(#id1)"><g clip-path="url(#id2)"><g clip-path="url(#id3)"><path fill="rgb(20.388794%, 71.759033%, 94.509888%)" d="M 131.027344 163.082031 C 117.746094 184.097656 89.847656 190.292969 68.949219 177.085938 C 48.050781 163.878906 41.664062 136.023438 54.945312 115.003906 C 68.226562 93.988281 96.007812 87.722656 117.027344 101.003906 C 138.042969 114.285156 144.234375 142.183594 131.027344 163.082031 Z M 57.292969 116.488281 C 44.828125 136.214844 50.707031 162.273438 70.433594 174.738281 C 90.15625 187.203125 116.214844 181.324219 128.679688 161.597656 C 141.144531 141.875 135.265625 115.816406 115.542969 103.351562 C 95.816406 90.886719 69.683594 96.882812 57.292969 116.488281 Z M 57.292969 116.488281 " fill-opacity="1" fill-rule="nonzero"/></g></g></g><g clip-path="url(#id4)"><g clip-path="url(#id5)"><g clip-path="url(#id6)"><path fill="rgb(20.388794%, 71.759033%, 94.509888%)" d="M 173.808594 119.542969 C 153.734375 130.332031 128.671875 122.695312 117.945312 102.734375 C 107.21875 82.773438 114.679688 57.660156 134.753906 46.871094 C 154.828125 36.085938 179.828125 43.605469 190.617188 63.679688 C 201.40625 83.757812 193.769531 108.816406 173.808594 119.542969 Z M 135.960938 49.113281 C 117.121094 59.238281 110.0625 82.6875 120.1875 101.527344 C 130.3125 120.371094 153.761719 127.425781 172.601562 117.300781 C 191.441406 107.175781 198.5 83.726562 188.375 64.886719 C 178.25 46.046875 154.6875 39.050781 135.960938 49.113281 Z M 135.960938 49.113281 " fill-opacity="1" fill-rule="nonzero"/></g></g></g><g clip-path="url(#id7)"><g clip-path="url(#id8)"><g clip-path="url(#id9)"><path fill="rgb(20.388794%, 71.759033%, 94.509888%)" d="M 216.917969 121.203125 C 195.328125 113.90625 183.792969 90.382812 191.046875 68.914062 C 198.304688 47.445312 221.746094 35.75 243.335938 43.046875 C 264.925781 50.34375 276.5 73.742188 269.203125 95.332031 C 261.90625 116.921875 238.386719 128.460938 216.917969 121.203125 Z M 242.519531 45.457031 C 222.257812 38.609375 200.308594 49.46875 193.460938 69.730469 C 186.613281 89.992188 197.46875 111.941406 217.734375 118.789062 C 237.996094 125.640625 259.941406 114.78125 266.792969 94.519531 C 273.640625 74.253906 262.660156 52.265625 242.519531 45.457031 Z M 242.519531 45.457031 " fill-opacity="1" fill-rule="nonzero"/></g></g></g><g clip-path="url(#id10)"><g clip-path="url(#id11)"><g clip-path="url(#id12)"><path fill="rgb(20.388794%, 71.759033%, 94.509888%)" d="M 256.589844 151.515625 C 245.4375 132.359375 252.027344 107.742188 271.078125 96.652344 C 290.128906 85.5625 314.789062 91.980469 325.941406 111.140625 C 337.097656 130.296875 330.613281 154.851562 311.457031 166.003906 C 292.296875 177.15625 267.683594 170.566406 256.589844 151.515625 Z M 323.800781 112.386719 C 313.335938 94.40625 290.304688 88.324219 272.324219 98.792969 C 254.34375 109.261719 248.261719 132.289062 258.730469 150.269531 C 269.199219 168.25 292.230469 174.332031 310.210938 163.863281 C 328.191406 153.394531 334.207031 130.257812 323.800781 112.386719 Z M 323.800781 112.386719 " fill-opacity="1" fill-rule="nonzero"/></g></g></g><g clip-path="url(#id13)"><path fill="rgb(20.388794%, 71.759033%, 94.509888%)" d="M 211.75 253.496094 C 211.75 260.273438 210.828125 266.84375 208.984375 273.015625 C 207.226562 278.9375 204.734375 284.246094 201.550781 288.78125 C 195.207031 297.828125 186.894531 302.804688 178.140625 302.804688 C 169.386719 302.804688 161.054688 297.828125 154.730469 288.78125 C 151.546875 284.246094 149.054688 278.9375 147.296875 273.015625 C 145.472656 266.84375 144.53125 260.273438 144.53125 253.496094 C 144.53125 246.714844 145.453125 240.144531 147.296875 233.972656 C 149.054688 228.050781 151.546875 222.742188 154.730469 218.207031 C 161.054688 209.136719 169.367188 204.164062 178.140625 204.164062 C 186.914062 204.164062 195.207031 209.136719 201.550781 218.183594 C 204.734375 222.71875 207.226562 228.03125 208.984375 233.949219 C 210.828125 240.144531 211.75 246.714844 211.75 253.496094 M 214.890625 253.496094 C 214.890625 224.503906 198.429688 201.011719 178.140625 201.011719 C 157.847656 201.011719 141.390625 224.503906 141.390625 253.496094 C 141.390625 282.484375 157.847656 305.976562 178.140625 305.976562 C 198.429688 305.976562 214.890625 282.484375 214.890625 253.496094 Z M 214.890625 253.496094 " fill-opacity="1" fill-rule="nonzero"/></g><g fill="rgb(20.388794%, 71.759033%, 94.509888%)" fill-opacity="1"><g transform="translate(246.365818, 319.824478)"><g><path d="M 20.84375 0 C 25.726562 0 29.796875 -3.90625 29.796875 -8.792969 L 29.796875 -95.582031 C 29.796875 -100.46875 25.726562 -104.210938 20.84375 -104.210938 C 15.957031 -104.210938 12.050781 -100.46875 12.050781 -95.582031 L 12.050781 -8.792969 C 12.050781 -3.90625 15.957031 0 20.84375 0 Z M 20.84375 0 "/></g></g></g><g fill="rgb(20.388794%, 71.759033%, 94.509888%)" fill-opacity="1"><g transform="translate(242.340043, 198.823495)"><g><path d="M -0.0703125 4.234375 C -0.0703125 4.832031 0.382812 5.3125 0.957031 5.3125 L 30.40625 5.3125 C 31.050781 5.3125 31.433594 4.832031 31.433594 4.234375 C 31.433594 3.636719 31.050781 3.183594 30.40625 3.183594 L 0.957031 3.183594 C 0.382812 3.183594 -0.0703125 3.660156 -0.0703125 4.234375 Z M -0.0703125 4.234375 "/></g></g></g><g fill="rgb(20.388794%, 71.759033%, 94.509888%)" fill-opacity="1"><g transform="translate(168.711295, 200.530504)"><g><path d="M 0 2.925781 C 0 3.613281 0.550781 4.183594 1.234375 4.183594 L 13.425781 4.183594 C 14.109375 4.183594 14.636719 3.613281 14.636719 2.925781 C 14.636719 2.242188 14.109375 1.691406 13.425781 1.691406 L 1.234375 1.691406 C 0.550781 1.691406 0 2.242188 0 2.925781 Z M 0 2.925781 "/></g></g></g><g fill="rgb(0%, 0%, 0%)" fill-opacity="1"><g transform="translate(187.499992, 189.749988)"><g/></g></g><g clip-path="url(#id14)"><path fill="rgb(20.388794%, 71.759033%, 94.509888%)" d="M 272.65625 205.542969 C 272.65625 183.378906 290.738281 165.417969 312.78125 165.417969 C 334.824219 165.417969 352.90625 183.378906 352.90625 205.542969 C 352.90625 227.710938 334.949219 245.667969 312.78125 245.667969 C 290.613281 245.667969 272.65625 227.589844 272.65625 205.542969 Z M 350.429688 205.542969 C 350.429688 184.738281 333.585938 167.898438 312.78125 167.898438 C 291.976562 167.898438 275.132812 184.738281 275.132812 205.542969 C 275.132812 226.351562 291.976562 243.191406 312.78125 243.191406 C 333.585938 243.191406 350.429688 226.226562 350.429688 205.542969 Z M 350.429688 205.542969 " fill-opacity="1" fill-rule="nonzero"/></g></svg>